<svg width="113" height="88" viewBox="0 0 113 88" fill="none" xmlns="http://www.w3.org/2000/svg">
<circle opacity="0.110561" cx="6.05357" cy="6.05357" r="6.05357" fill="#F57F17"/>
<circle opacity="0.110561" cx="31.6131" cy="6.05357" r="6.05357" fill="#F57F17"/>
<circle opacity="0.110561" cx="55.8274" cy="6.05357" r="6.05357" fill="#F57F17"/>
<circle opacity="0.110561" cx="81.3869" cy="6.05357" r="6.05357" fill="#F57F17"/>
<circle opacity="0.110561" cx="6.05357" cy="31.6131" r="6.05357" fill="#F57F17"/>
<circle opacity="0.110561" cx="31.6131" cy="31.6131" r="6.05357" fill="#F57F17"/>
<circle opacity="0.110561" cx="55.8274" cy="31.6131" r="6.05357" fill="#F57F17"/>
<circle opacity="0.110561" cx="81.3869" cy="31.6131" r="6.05357" fill="#F57F17"/>
<circle opacity="0.110561" cx="6.05357" cy="55.8274" r="6.05357" fill="#F57F17"/>
<circle opacity="0.110561" cx="31.6131" cy="55.8274" r="6.05357" fill="#F57F17"/>
<circle opacity="0.110561" cx="55.8274" cy="55.8274" r="6.05357" fill="#F57F17"/>
<circle opacity="0.110561" cx="81.3869" cy="55.8274" r="6.05357" fill="#F57F17"/>
<circle opacity="0.110561" cx="6.05357" cy="81.3869" r="6.05357" fill="#F57F17"/>
<circle opacity="0.110561" cx="31.6131" cy="81.3869" r="6.05357" fill="#F57F17"/>
<circle opacity="0.110561" cx="55.8274" cy="81.3869" r="6.05357" fill="#F57F17"/>
<circle opacity="0.110561" cx="81.3869" cy="81.3869" r="6.05357" fill="#F57F17"/>
<circle opacity="0.110561" cx="106.946" cy="6.05357" r="6.05357" fill="#F57F17"/>
<circle opacity="0.110561" cx="106.946" cy="31.6131" r="6.05357" fill="#F57F17"/>
<circle opacity="0.110561" cx="106.946" cy="55.8274" r="6.05357" fill="#F57F17"/>
<circle opacity="0.110561" cx="106.946" cy="81.3869" r="6.05357" fill="#F57F17"/>
</svg>
