<svg width="258" height="43" viewBox="0 0 258 43" fill="none" xmlns="http://www.w3.org/2000/svg">
<path d="M207.448 11.5779C210.507 11.5779 212.987 9.098 212.987 6.03893C212.987 2.97986 210.507 0.5 207.448 0.5C204.389 0.5 201.909 2.97986 201.909 6.03893C201.909 9.098 204.389 11.5779 207.448 11.5779Z" fill="#304FFE"/>
<path d="M31.1985 22.8454L22.8882 9.50004C22.8882 9.44578 22.4696 8.8256 22.4696 8.8256L22.1362 8.68994L9.72887 11.8993L2.28291 17.3336L1.53482 26.7176L1.58521 26.8455L6.87995 34.5783L22.3921 37.059L31.2024 23.1826V22.8493L31.1985 22.8454ZM21.9696 9.35663C17.5353 12.2676 14.4887 17.1243 14.043 22.7059H13.7445L10.3994 12.2521L21.9696 9.35663ZM9.86453 12.566L13.008 22.3997L3.18216 17.3142L9.86453 12.5699V12.566ZM2.85657 17.8375L12.2677 22.7059L12.822 22.9539L11.5235 23.3144L2.18213 26.2447L2.85269 17.8375H2.85657ZM7.23267 34.0124L2.32167 26.8417L13.5507 23.3144H14.0081C13.9887 23.5819 13.9848 23.8493 13.9848 24.1245C13.9848 28.6014 15.6593 32.6984 18.4191 35.8109L7.23267 34.0124V34.0124ZM21.9928 36.3807L19.392 35.9621C16.419 32.8922 14.5895 28.7254 14.5895 24.1245C14.5895 23.8493 14.5972 23.5819 14.6127 23.3144H30.369L21.9928 36.3846V36.3807ZM14.6515 22.702C15.0973 17.3104 18.0625 12.6203 22.3688 9.81788L30.3923 22.702H14.6515Z" fill="#444444"/>
<path d="M20.5931 42.1948C23.6522 42.1948 26.1321 39.7149 26.1321 36.6559C26.1321 33.5968 23.6522 31.1169 20.5931 31.1169C17.5341 31.1169 15.0542 33.5968 15.0542 36.6559C15.0542 39.7149 17.5341 42.1948 20.5931 42.1948Z" fill="#DE2A2F"/>
<path d="M9.70966 14.4735C10.8571 14.4735 11.7872 13.5434 11.7872 12.3959C11.7872 11.2485 10.8571 10.3184 9.70966 10.3184C8.56225 10.3184 7.63208 11.2485 7.63208 12.3959C7.63208 13.5434 8.56225 14.4735 9.70966 14.4735Z" fill="#DE2A2F"/>
<path d="M21.8571 15.1399C24.9162 15.1399 27.396 12.66 27.396 9.60094C27.396 6.54188 24.9162 4.06201 21.8571 4.06201C18.798 4.06201 16.3182 6.54188 16.3182 9.60094C16.3182 12.66 18.798 15.1399 21.8571 15.1399Z" fill="#0E9F49"/>
<path d="M13.6707 28.4114C16.7298 28.4114 19.2096 25.9315 19.2096 22.8724C19.2096 19.8134 16.7298 17.3335 13.6707 17.3335C10.6116 17.3335 8.13177 19.8134 8.13177 22.8724C8.13177 25.9315 10.6116 28.4114 13.6707 28.4114Z" fill="#FAD900"/>
<path d="M3.2398 19.6209C4.47713 19.6209 5.48018 18.6178 5.48018 17.3805C5.48018 16.1432 4.47713 15.1401 3.2398 15.1401C2.00247 15.1401 0.99942 16.1432 0.99942 17.3805C0.99942 18.6178 2.00247 19.6209 3.2398 19.6209Z" fill="#0E9F49"/>
<path d="M7.18933 35.6406C8.13339 35.6406 8.89869 34.8753 8.89869 33.9313C8.89869 32.9872 8.13339 32.2219 7.18933 32.2219C6.24528 32.2219 5.47998 32.9872 5.47998 33.9313C5.47998 34.8753 6.24528 35.6406 7.18933 35.6406Z" fill="#FAD900"/>
<path d="M2.08921 28.6906C3.24305 28.6906 4.17842 27.7553 4.17842 26.6014C4.17842 25.4476 3.24305 24.5122 2.08921 24.5122C0.935372 24.5122 0 25.4476 0 26.6014C0 27.7553 0.935372 28.6906 2.08921 28.6906Z" fill="#DE2A2F"/>
<path d="M57.8423 5.76367V41.1175H50.7142V25.6092H38.3495V41.1175H31.1981V28.683C34.33 28.4931 36.8029 25.8999 36.8029 22.7293C36.8029 19.5587 34.33 16.9617 31.1981 16.7718V5.76367H38.3495V19.1013H50.7142V5.76367H57.8423V5.76367Z" fill="#304FFE"/>
<path d="M61.3422 14.9655H68.292V27.559C68.292 30.0086 68.4703 31.7141 68.823 32.6676C69.1758 33.6212 69.7456 34.3615 70.5285 34.8925C71.3115 35.4197 72.2728 35.6871 73.4201 35.6871C74.5674 35.6871 75.5364 35.4274 76.3349 34.9041C77.1334 34.3847 77.7264 33.6173 78.114 32.6095C78.4009 31.8575 78.5443 30.2451 78.5443 27.7799V14.9655H85.4205V26.0434C85.4205 30.6094 85.0445 33.7336 84.2886 35.4158C83.3661 37.4662 82.0056 39.0399 80.211 40.1369C78.4125 41.2338 76.1295 41.7842 73.3619 41.7842C70.358 41.7842 67.9277 41.1446 66.071 39.8617C64.2144 38.5787 62.912 36.7957 62.1562 34.501C61.6174 32.9157 61.3499 30.0319 61.3499 25.8496V14.9617L61.3422 14.9655Z" fill="#304FFE"/>
<path d="M88.7463 14.9657H95.6225V17.9697C96.7969 16.7371 98.1031 15.8146 99.5412 15.206C100.979 14.5975 102.545 14.2913 104.243 14.2913C105.941 14.2913 107.503 14.6905 108.879 15.4928C110.255 16.2952 111.363 17.4619 112.204 19.0007C113.297 17.4619 114.635 16.2952 116.224 15.4928C117.813 14.6905 119.546 14.2913 121.429 14.2913C123.313 14.2913 125.092 14.7254 126.569 15.5897C128.046 16.4541 129.112 17.5859 129.755 18.9774C130.403 20.3728 130.724 22.6404 130.724 25.78V41.1138H123.798V27.8459C123.798 24.8807 123.41 22.8768 122.639 21.8264C121.867 20.776 120.708 20.2527 119.162 20.2527C117.987 20.2527 116.933 20.5744 116.003 21.214C115.073 21.8535 114.379 22.7411 113.925 23.8691C113.472 24.997 113.247 26.8149 113.247 29.3111V41.1099H106.32V28.4467C106.32 26.1094 106.138 24.4117 105.778 23.3652C105.417 22.3148 104.875 21.5357 104.15 21.024C103.425 20.5124 102.549 20.2566 101.526 20.2566C100.382 20.2566 99.3435 20.5821 98.4094 21.2295C97.4752 21.8768 96.7775 22.7876 96.3163 23.9582C95.855 25.1288 95.6225 26.9699 95.6225 29.4855V41.1177H88.7463V14.9657Z" fill="#304FFE"/>
<path d="M153.974 14.9655H160.85V41.1136H153.974V38.3499C152.633 39.567 151.288 40.443 149.939 40.9818C148.59 41.5167 147.125 41.788 145.547 41.788C142.008 41.788 138.95 40.4779 136.365 37.8577C133.783 35.2374 132.493 31.9815 132.493 28.0899C132.493 24.1983 133.741 20.7447 136.241 18.1633C138.741 15.5857 141.776 14.2949 145.346 14.2949C146.989 14.2949 148.532 14.5934 149.974 15.1825C151.416 15.7756 152.749 16.6632 153.974 17.8493V14.9655V14.9655ZM146.745 20.3494C144.621 20.3494 142.857 21.0664 141.45 22.5006C140.043 23.9348 139.342 25.772 139.342 28.0163C139.342 30.2605 140.059 32.1327 141.489 33.5901C142.919 35.0475 144.679 35.7762 146.772 35.7762C148.865 35.7762 150.722 35.0591 152.144 33.625C153.567 32.1908 154.276 30.3109 154.276 27.9891C154.276 25.6674 153.567 23.8727 152.144 22.4618C150.722 21.0509 148.923 20.3455 146.749 20.3455L146.745 20.3494Z" fill="#304FFE"/>
<path d="M172.625 5.76367H179.776V19.1013H192.141V5.76367H199.269V41.1136H192.141V25.6131H179.776V41.1136H172.625V5.76367V5.76367Z" fill="#444444"/>
<path d="M210.886 14.9658H204.01V41.1139H210.886V14.9658Z" fill="#444444"/>
<path d="M215.281 14.9657H221.173V18.2565C221.813 16.958 222.658 15.9735 223.716 15.299C224.774 14.6246 225.933 14.2913 227.193 14.2913C228.08 14.2913 229.014 14.5161 229.987 14.9657L227.848 20.6132C227.041 20.2294 226.379 20.0356 225.859 20.0356C224.801 20.0356 223.906 20.6597 223.177 21.9116C222.448 23.1636 222.08 25.6133 222.08 29.2646L222.107 30.5398V41.1138H215.281V14.9657V14.9657Z" fill="#444444"/>
<path d="M257.972 29.9386H235.886C236.204 31.7991 237.057 33.2759 238.44 34.3728C239.824 35.4698 241.592 36.0202 243.743 36.0202C246.313 36.0202 248.518 35.1636 250.367 33.4503L256.158 36.0473C254.716 38.0009 252.987 39.4466 250.972 40.3847C248.956 41.3227 246.565 41.7917 243.793 41.7917C239.495 41.7917 235.995 40.4971 233.293 37.9117C230.591 35.3264 229.239 32.0821 229.239 28.1905C229.239 24.2989 230.587 20.8879 233.281 18.2522C235.975 15.6165 239.355 14.2986 243.417 14.2986C247.731 14.2986 251.239 15.6165 253.945 18.2522C256.646 20.8879 257.999 24.3687 257.999 28.6944L257.976 29.9425L257.972 29.9386ZM251.096 24.7718C250.642 23.3144 249.747 22.1283 248.41 21.2135C247.072 20.2988 245.522 19.8453 243.754 19.8453C241.836 19.8453 240.157 20.3569 238.708 21.3841C237.801 22.0275 236.96 23.1554 236.184 24.7718H251.092H251.096Z" fill="#444444"/>
</svg>
