<svg width="18" height="18" viewBox="0 0 18 18" fill="none" xmlns="http://www.w3.org/2000/svg">
<path opacity="0.6" fill-rule="evenodd" clip-rule="evenodd" d="M17.7814 1.20833V16.7917C17.7814 17.0732 17.3471 17.4936 17.0496 17.5H12.6589V11.125H14.8543V8.29167H12.6589V6.875C12.3395 5.96497 12.5501 5.46178 13.3907 5.45833H14.8543V3.33333C14.8137 3.13694 13.9846 3.06688 12.6589 3.33333C10.984 3.06688 9.6021 4.26433 9.73179 6.16667V8.29167H7.53643V11.125H9.73179V17.5H0.950353C0.652868 17.5 0.218567 17.0796 0.218567 16.7917V1.20833C0.218567 0.920382 0.652868 0.5 0.950353 0.5H17.0496C17.3471 0.5 17.7814 0.914013 17.7814 1.20833Z" fill="#222222"/>
</svg>
