<svg width="36" height="36" viewBox="0 0 36 36" fill="none" xmlns="http://www.w3.org/2000/svg">
<rect width="36" height="36" rx="18" fill="white"/>
<g clip-path="url(#clip0_471_27919)">
<path fill-rule="evenodd" clip-rule="evenodd" d="M18.9249 17.7167C18.6499 17.9 18.3333 18 17.9999 18C17.6749 18 17.3499 17.9 17.0749 17.7167L9.68326 12.7917C9.79159 11.05 11.2333 9.66667 12.9999 9.66667H22.9999C24.7666 9.66667 26.2083 11.05 26.3166 12.7917L18.9249 17.7167ZM17.9999 19.6666C18.6416 19.6666 19.2916 19.4832 19.8499 19.1082L26.3332 14.7832V22.9999C26.3332 24.8416 24.8416 26.3332 22.9999 26.3332H12.9999C11.1582 26.3332 9.66658 24.8416 9.66658 22.9999V14.7832L16.1499 19.1082C16.7082 19.4832 17.3582 19.6666 17.9999 19.6666Z" fill="#20C1AA"/>
</g>
<defs>
<clipPath id="clip0_471_27919">
<rect width="16.6667" height="16.6667" fill="white" transform="translate(9.66666 9.66675)"/>
</clipPath>
</defs>
</svg>
