<svg width="36" height="36" viewBox="0 0 36 36" fill="none" xmlns="http://www.w3.org/2000/svg">
<rect width="36" height="36" rx="18" fill="white"/>
<path d="M13.8 9.66675C13.1 9.66675 12.425 9.93341 11.9167 10.4334L11.2583 11.0917C10.8833 11.4584 10.4917 11.9334 10.1917 12.5334C9.88332 13.1251 9.66666 13.8501 9.66666 14.6667C9.66666 15.4334 9.85832 16.2667 10.2833 17.1251C10.7083 17.9917 11.375 18.8917 12.325 19.8417L16.1917 23.6834C17.15 24.6334 18.05 25.2917 18.9167 25.7167C19.775 26.1417 20.6 26.3251 21.3583 26.3251H21.3667H21.375C22.1833 26.3251 22.9083 26.1167 23.5083 25.8167C24.1083 25.5167 24.6 25.1251 24.9833 24.7417L25.6417 24.0834L25.7417 23.9667C26.1083 23.4667 26.3333 22.8417 26.3333 22.1667C26.3333 21.7751 26.25 21.3667 26.0583 20.9834L26.0417 20.9584C25.6167 20.2001 24.95 19.6417 24.3583 19.1834C24.0583 18.9584 23.7833 18.7751 23.5667 18.6334C23.4583 18.5667 23.3583 18.5084 23.2833 18.4584L23.1583 18.3917L23.1333 18.3751L23.1 18.3584C22.75 18.1584 22.3417 18.0084 21.8917 18.0084C21.675 18.0084 21.45 18.0501 21.2333 18.1251L21.1583 18.1501L21.1167 18.1667C20.9 18.2334 20.6833 18.3251 20.475 18.4751C20.2833 18.6167 20.1333 18.8084 20 19.0084C19.875 19.1417 19.75 19.2751 19.6583 19.3834L19.5667 19.5001L19.525 19.4667L16.55 16.5251L16.5167 16.4834C16.6417 16.3584 16.8667 16.1417 17.05 15.9501C17.2 15.8417 17.35 15.7167 17.4917 15.5501C17.6667 15.3417 17.825 15.0751 17.9083 14.7501L17.9167 14.7084C17.95 14.5501 17.9667 14.3834 17.9667 14.2167C17.9667 13.7417 17.825 13.2834 17.5917 12.8834L17.5583 12.8251L17.475 12.6834C17.3083 12.4167 16.975 11.9251 16.55 11.4001C16.1167 10.8751 15.625 10.3334 15.0083 9.95841L14.9583 9.93341C14.5833 9.75008 14.1917 9.66675 13.8 9.66675Z" fill="#20C1AA"/>
</svg>
