<svg width="18" height="17" viewBox="0 0 18 17" fill="none" xmlns="http://www.w3.org/2000/svg">
<path opacity="0.6" fill-rule="evenodd" clip-rule="evenodd" d="M2.13076 0C0.842579 0 0 0.855914 0 1.98147C0 3.0825 0.818201 3.96439 2.08078 3.96439H2.10594C3.41907 3.96439 4.23572 3.08266 4.23572 1.98147C4.21097 0.855914 3.41907 0 2.13076 0ZM17.5625 10.4225V16.9998H13.7982V10.863C13.7982 9.32142 13.2537 8.26933 11.8912 8.26933C10.8511 8.26933 10.2321 8.97836 9.95976 9.66424C9.86046 9.90943 9.8349 10.2507 9.8349 10.5939V16.9998H6.06934C6.06934 16.9998 6.12005 6.60611 6.06934 5.52924H9.83453V7.15515C9.83092 7.1609 9.82681 7.16685 9.82271 7.17278C9.81813 7.1794 9.81358 7.18599 9.80978 7.19221H9.83453V7.15515C10.3348 6.37469 11.2282 5.25977 13.2278 5.25977C15.7053 5.25972 17.5625 6.8992 17.5625 10.4225ZM3.98779 17H0.223633V5.52939H3.98779V17Z" fill="#222222"/>
</svg>
