<svg width="181" height="58" viewBox="0 0 181 58" fill="none" xmlns="http://www.w3.org/2000/svg">
<path d="M137.514 18.5618C139.351 18.5618 140.841 17.1489 140.841 15.4059C140.841 13.6629 139.351 12.25 137.514 12.25C135.677 12.25 134.187 13.6629 134.187 15.4059C134.187 17.1489 135.677 18.5618 137.514 18.5618Z" fill="#20C1AA"/>
<path d="M31.6526 24.9818L26.6612 17.3781C26.6612 17.3472 26.4097 16.9938 26.4097 16.9938L26.2095 16.9165L18.7573 18.7451L14.285 21.8414L13.8356 27.1881L13.8659 27.261L17.0461 31.6669L26.3632 33.0803L31.655 25.174V24.984L31.6526 24.9818ZM26.1094 17.2964C23.4461 18.9549 21.6162 21.7221 21.3484 24.9023H21.1692L19.16 18.9461L26.1094 17.2964ZM18.8387 19.125L20.7268 24.7279L14.8251 21.8303L18.8387 19.1272V19.125ZM14.6295 22.1285L20.2822 24.9023L20.6151 25.0437L19.8352 25.2491L14.2244 26.9187L14.6272 22.1285H14.6295ZM17.258 31.3444L14.3082 27.2588L21.0528 25.2491H21.3275C21.3158 25.4014 21.3135 25.5538 21.3135 25.7106C21.3135 28.2614 22.3193 30.5958 23.9769 32.3692L17.258 31.3444ZM26.1234 32.6938L24.5612 32.4553C22.7756 30.7062 21.6767 28.3321 21.6767 25.7106C21.6767 25.5538 21.6814 25.4014 21.6907 25.2491H31.1544L26.1234 32.696V32.6938ZM21.7139 24.9001C21.9817 21.8281 23.7627 19.1559 26.3492 17.5592L31.1684 24.9001H21.7139Z" fill="#444444"/>
<path d="M25.2829 36.0066C27.1202 36.0066 28.6097 34.5937 28.6097 32.8507C28.6097 31.1078 27.1202 29.6948 25.2829 29.6948C23.4455 29.6948 21.956 31.1078 21.956 32.8507C21.956 34.5937 23.4455 36.0066 25.2829 36.0066Z" fill="#DE2A2F"/>
<path d="M18.7456 20.2117C19.4348 20.2117 19.9935 19.6817 19.9935 19.028C19.9935 18.3742 19.4348 17.8442 18.7456 17.8442C18.0565 17.8442 17.4978 18.3742 17.4978 19.028C17.4978 19.6817 18.0565 20.2117 18.7456 20.2117Z" fill="#DE2A2F"/>
<path d="M26.0418 20.5913C27.8792 20.5913 29.3687 19.1784 29.3687 17.4354C29.3687 15.6925 27.8792 14.2795 26.0418 14.2795C24.2045 14.2795 22.715 15.6925 22.715 17.4354C22.715 19.1784 24.2045 20.5913 26.0418 20.5913Z" fill="#0E9F49"/>
<path d="M21.1251 28.1534C22.9625 28.1534 24.4519 26.7404 24.4519 24.9975C24.4519 23.2545 22.9625 21.8416 21.1251 21.8416C19.2877 21.8416 17.7982 23.2545 17.7982 24.9975C17.7982 26.7404 19.2877 28.1534 21.1251 28.1534Z" fill="#FAD900"/>
<path d="M14.8597 23.1443C15.6029 23.1443 16.2054 22.5728 16.2054 21.8678C16.2054 21.1628 15.6029 20.5913 14.8597 20.5913C14.1165 20.5913 13.5141 21.1628 13.5141 21.8678C13.5141 22.5728 14.1165 23.1443 14.8597 23.1443Z" fill="#0E9F49"/>
<path d="M17.2322 32.2721C17.7992 32.2721 18.2589 31.836 18.2589 31.2982C18.2589 30.7603 17.7992 30.3242 17.2322 30.3242C16.6652 30.3242 16.2055 30.7603 16.2055 31.2982C16.2055 31.836 16.6652 32.2721 17.2322 32.2721Z" fill="#FAD900"/>
<path d="M14.1685 28.3124C14.8615 28.3124 15.4233 27.7794 15.4233 27.122C15.4233 26.4646 14.8615 25.9316 14.1685 25.9316C13.4754 25.9316 12.9136 26.4646 12.9136 27.122C12.9136 27.7794 13.4754 28.3124 14.1685 28.3124Z" fill="#DE2A2F"/>
<path d="M47.6558 15.249V35.3925H43.3745V26.5564H35.9478V35.3925H31.6524V28.3077C33.5335 28.1995 35.0189 26.722 35.0189 24.9155C35.0189 23.109 33.5335 21.6293 31.6524 21.5211V15.249H35.9478V22.8484H43.3745V15.249H47.6558Z" fill="#20C1AA"/>
<path d="M49.7582 20.492H53.9325V27.6673C53.9325 29.063 54.0396 30.0347 54.2514 30.578C54.4633 31.1213 54.8055 31.5431 55.2758 31.8457C55.7461 32.146 56.3234 32.2984 57.0126 32.2984C57.7017 32.2984 58.2837 32.1505 58.7633 31.8523C59.2429 31.5564 59.5991 31.1191 59.8319 30.5449C60.0042 30.1165 60.0903 29.1977 60.0903 27.7932V20.492H64.2204V26.8038C64.2204 29.4053 63.9946 31.1854 63.5406 32.1438C62.9865 33.3121 62.1693 34.2088 61.0914 34.8337C60.0112 35.4587 58.6399 35.7723 56.9776 35.7723C55.1734 35.7723 53.7136 35.408 52.5985 34.6769C51.4833 33.9459 50.7011 32.93 50.2471 31.6226C49.9235 30.7194 49.7628 29.0763 49.7628 26.6933V20.4897L49.7582 20.492Z" fill="#20C1AA"/>
<path d="M66.218 20.4922H70.3481V22.2037C71.0535 21.5015 71.8381 20.9758 72.7018 20.6291C73.5655 20.2824 74.5061 20.1079 75.5258 20.1079C76.5455 20.1079 77.4837 20.3354 78.3102 20.7925C79.1367 21.2497 79.8025 21.9144 80.3077 22.7912C80.9642 21.9144 81.7674 21.2497 82.722 20.7925C83.6765 20.3354 84.7172 20.1079 85.8486 20.1079C86.9801 20.1079 88.0487 20.3553 88.9357 20.8477C89.8227 21.3402 90.4629 21.9851 90.8494 22.7779C91.2382 23.573 91.4314 24.865 91.4314 26.6538V35.3905H87.2711V27.8309C87.2711 26.1414 87.0383 24.9997 86.575 24.4012C86.1117 23.8027 85.4156 23.5045 84.4867 23.5045C83.7813 23.5045 83.148 23.6878 82.5893 24.0522C82.0305 24.4166 81.6138 24.9224 81.3414 25.565C81.069 26.2077 80.934 27.2435 80.934 28.6657V35.3883H76.7737V28.1732C76.7737 26.8415 76.6642 25.8742 76.4477 25.2779C76.2312 24.6794 75.9053 24.2355 75.4699 23.944C75.0346 23.6525 74.5084 23.5067 73.8938 23.5067C73.207 23.5067 72.5831 23.6923 72.022 24.0611C71.4609 24.4299 71.0419 24.9489 70.7648 25.6158C70.4878 26.2828 70.3481 27.3318 70.3481 28.7651V35.3927H66.218V20.4922Z" fill="#20C1AA"/>
<path d="M105.395 20.4919H109.526V35.3903H105.395V33.8156C104.59 34.5091 103.782 35.0082 102.972 35.3152C102.162 35.6199 101.282 35.7745 100.334 35.7745C98.2086 35.7745 96.3717 35.0281 94.8188 33.5351C93.2683 32.0422 92.4931 30.1871 92.4931 27.9698C92.4931 25.7525 93.2427 23.7848 94.7443 22.3139C96.246 20.8453 98.0689 20.1099 100.213 20.1099C101.2 20.1099 102.127 20.2799 102.993 20.6156C103.859 20.9535 104.66 21.4592 105.395 22.135V20.4919ZM101.054 23.5595C99.7777 23.5595 98.7184 23.9681 97.8733 24.7852C97.0282 25.6023 96.6068 26.6491 96.6068 27.9278C96.6068 29.2065 97.0375 30.2732 97.8966 31.1036C98.7557 31.934 99.8126 32.3492 101.07 32.3492C102.327 32.3492 103.442 31.9406 104.297 31.1235C105.151 30.3064 105.577 29.2353 105.577 27.9124C105.577 26.5895 105.151 25.567 104.297 24.7631C103.442 23.9592 102.362 23.5573 101.056 23.5573L101.054 23.5595Z" fill="#20C1AA"/>
<path d="M116.598 15.249H120.894V22.8484H128.32V15.249H132.602V35.3903H128.32V26.5586H120.894V35.3903H116.598V15.249Z" fill="#444444"/>
<path d="M139.579 20.4922H135.449V35.3905H139.579V20.4922Z" fill="#444444"/>
<path d="M142.219 20.4922H145.757V22.3672C146.142 21.6273 146.649 21.0664 147.285 20.6821C147.92 20.2978 148.616 20.1079 149.373 20.1079C149.906 20.1079 150.467 20.236 151.052 20.4922L149.766 23.7099C149.282 23.4913 148.884 23.3809 148.572 23.3809C147.937 23.3809 147.399 23.7364 146.961 24.4498C146.523 25.1631 146.302 26.5588 146.302 28.6392L146.319 29.3658V35.3905H142.219V20.4922Z" fill="#444444"/>
<path d="M167.861 29.0235H154.595C154.786 30.0835 155.298 30.925 156.129 31.55C156.96 32.175 158.022 32.4886 159.314 32.4886C160.858 32.4886 162.182 32.0005 163.293 31.0244L166.771 32.504C165.905 33.6171 164.867 34.4409 163.656 34.9753C162.445 35.5098 161.009 35.777 159.344 35.777C156.763 35.777 154.66 35.0393 153.038 33.5663C151.415 32.0932 150.602 30.2448 150.602 28.0275C150.602 25.8102 151.413 23.8667 153.031 22.3649C154.649 20.8632 156.679 20.1123 159.119 20.1123C161.71 20.1123 163.817 20.8632 165.442 22.3649C167.064 23.8667 167.877 25.8499 167.877 28.3146L167.863 29.0257L167.861 29.0235ZM163.731 26.0796C163.458 25.2492 162.92 24.5734 162.117 24.0522C161.314 23.531 160.383 23.2726 159.321 23.2726C158.169 23.2726 157.161 23.5641 156.29 24.1494C155.745 24.516 155.24 25.1587 154.774 26.0796H163.728H163.731Z" fill="#444444"/>
<path d="M99.1822 44.636V45.524H95.5462V48.344H98.4982V49.232H95.5462V53H94.4542V44.636H99.1822ZM103.369 53.108C102.753 53.108 102.193 52.968 101.689 52.688C101.193 52.408 100.801 52.012 100.513 51.5C100.233 50.98 100.093 50.38 100.093 49.7C100.093 49.028 100.237 48.436 100.525 47.924C100.821 47.404 101.221 47.008 101.725 46.736C102.229 46.456 102.793 46.316 103.417 46.316C104.041 46.316 104.605 46.456 105.109 46.736C105.613 47.008 106.009 47.4 106.297 47.912C106.593 48.424 106.741 49.02 106.741 49.7C106.741 50.38 106.589 50.98 106.285 51.5C105.989 52.012 105.585 52.408 105.073 52.688C104.561 52.968 103.993 53.108 103.369 53.108ZM103.369 52.148C103.761 52.148 104.129 52.056 104.473 51.872C104.817 51.688 105.093 51.412 105.301 51.044C105.517 50.676 105.625 50.228 105.625 49.7C105.625 49.172 105.521 48.724 105.313 48.356C105.105 47.988 104.833 47.716 104.497 47.54C104.161 47.356 103.797 47.264 103.405 47.264C103.005 47.264 102.637 47.356 102.301 47.54C101.973 47.716 101.709 47.988 101.509 48.356C101.309 48.724 101.209 49.172 101.209 49.7C101.209 50.236 101.305 50.688 101.497 51.056C101.697 51.424 101.961 51.7 102.289 51.884C102.617 52.06 102.977 52.148 103.369 52.148ZM109.269 47.492C109.461 47.116 109.733 46.824 110.085 46.616C110.445 46.408 110.881 46.304 111.393 46.304V47.432H111.105C109.881 47.432 109.269 48.096 109.269 49.424V53H108.177V46.424H109.269V47.492ZM120.257 53L118.265 49.58H116.945V53H115.853V44.636H118.553C119.185 44.636 119.717 44.744 120.149 44.96C120.589 45.176 120.917 45.468 121.133 45.836C121.349 46.204 121.457 46.624 121.457 47.096C121.457 47.672 121.289 48.18 120.953 48.62C120.625 49.06 120.129 49.352 119.465 49.496L121.565 53H120.257ZM116.945 48.704H118.553C119.145 48.704 119.589 48.56 119.885 48.272C120.181 47.976 120.329 47.584 120.329 47.096C120.329 46.6 120.181 46.216 119.885 45.944C119.597 45.672 119.153 45.536 118.553 45.536H116.945V48.704ZM129.153 49.46C129.153 49.668 129.141 49.888 129.117 50.12H123.861C123.901 50.768 124.121 51.276 124.521 51.644C124.929 52.004 125.421 52.184 125.997 52.184C126.469 52.184 126.861 52.076 127.173 51.86C127.493 51.636 127.717 51.34 127.845 50.972H129.021C128.845 51.604 128.493 52.12 127.965 52.52C127.437 52.912 126.781 53.108 125.997 53.108C125.373 53.108 124.813 52.968 124.317 52.688C123.829 52.408 123.445 52.012 123.165 51.5C122.885 50.98 122.745 50.38 122.745 49.7C122.745 49.02 122.881 48.424 123.153 47.912C123.425 47.4 123.805 47.008 124.293 46.736C124.789 46.456 125.357 46.316 125.997 46.316C126.621 46.316 127.173 46.452 127.653 46.724C128.133 46.996 128.501 47.372 128.757 47.852C129.021 48.324 129.153 48.86 129.153 49.46ZM128.025 49.232C128.025 48.816 127.933 48.46 127.749 48.164C127.565 47.86 127.313 47.632 126.993 47.48C126.681 47.32 126.333 47.24 125.949 47.24C125.397 47.24 124.925 47.416 124.533 47.768C124.149 48.12 123.929 48.608 123.873 49.232H128.025ZM130.187 49.7C130.187 49.02 130.323 48.428 130.595 47.924C130.867 47.412 131.243 47.016 131.723 46.736C132.211 46.456 132.767 46.316 133.391 46.316C134.199 46.316 134.863 46.512 135.383 46.904C135.911 47.296 136.259 47.84 136.427 48.536H135.251C135.139 48.136 134.919 47.82 134.591 47.588C134.271 47.356 133.871 47.24 133.391 47.24C132.767 47.24 132.263 47.456 131.879 47.888C131.495 48.312 131.303 48.916 131.303 49.7C131.303 50.492 131.495 51.104 131.879 51.536C132.263 51.968 132.767 52.184 133.391 52.184C133.871 52.184 134.271 52.072 134.591 51.848C134.911 51.624 135.131 51.304 135.251 50.888H136.427C136.251 51.56 135.899 52.1 135.371 52.508C134.843 52.908 134.183 53.108 133.391 53.108C132.767 53.108 132.211 52.968 131.723 52.688C131.243 52.408 130.867 52.012 130.595 51.5C130.323 50.988 130.187 50.388 130.187 49.7ZM138.976 47.492C139.168 47.116 139.44 46.824 139.792 46.616C140.152 46.408 140.588 46.304 141.1 46.304V47.432H140.812C139.588 47.432 138.976 48.096 138.976 49.424V53H137.884V46.424H138.976V47.492ZM148.192 46.424V53H147.1V52.028C146.892 52.364 146.6 52.628 146.224 52.82C145.856 53.004 145.448 53.096 145 53.096C144.488 53.096 144.028 52.992 143.62 52.784C143.212 52.568 142.888 52.248 142.648 51.824C142.416 51.4 142.3 50.884 142.3 50.276V46.424H143.38V50.132C143.38 50.78 143.544 51.28 143.872 51.632C144.2 51.976 144.648 52.148 145.216 52.148C145.8 52.148 146.26 51.968 146.596 51.608C146.932 51.248 147.1 50.724 147.1 50.036V46.424H148.192ZM150.6 45.356C150.392 45.356 150.216 45.284 150.072 45.14C149.928 44.996 149.856 44.82 149.856 44.612C149.856 44.404 149.928 44.228 150.072 44.084C150.216 43.94 150.392 43.868 150.6 43.868C150.8 43.868 150.968 43.94 151.104 44.084C151.248 44.228 151.32 44.404 151.32 44.612C151.32 44.82 151.248 44.996 151.104 45.14C150.968 45.284 150.8 45.356 150.6 45.356ZM151.128 46.424V53H150.036V46.424H151.128ZM154.321 47.324V51.2C154.321 51.52 154.389 51.748 154.525 51.884C154.661 52.012 154.897 52.076 155.233 52.076H156.037V53H155.053C154.445 53 153.989 52.86 153.685 52.58C153.381 52.3 153.229 51.84 153.229 51.2V47.324H152.377V46.424H153.229V44.768H154.321V46.424H156.037V47.324H154.321ZM163.36 49.46C163.36 49.668 163.348 49.888 163.324 50.12H158.068C158.108 50.768 158.328 51.276 158.728 51.644C159.136 52.004 159.628 52.184 160.204 52.184C160.676 52.184 161.068 52.076 161.38 51.86C161.7 51.636 161.924 51.34 162.052 50.972H163.228C163.052 51.604 162.7 52.12 162.172 52.52C161.644 52.912 160.988 53.108 160.204 53.108C159.58 53.108 159.02 52.968 158.524 52.688C158.036 52.408 157.652 52.012 157.372 51.5C157.092 50.98 156.952 50.38 156.952 49.7C156.952 49.02 157.088 48.424 157.36 47.912C157.632 47.4 158.012 47.008 158.5 46.736C158.996 46.456 159.564 46.316 160.204 46.316C160.828 46.316 161.38 46.452 161.86 46.724C162.34 46.996 162.708 47.372 162.964 47.852C163.228 48.324 163.36 48.86 163.36 49.46ZM162.232 49.232C162.232 48.816 162.14 48.46 161.956 48.164C161.772 47.86 161.52 47.632 161.2 47.48C160.888 47.32 160.54 47.24 160.156 47.24C159.604 47.24 159.132 47.416 158.74 47.768C158.356 48.12 158.136 48.608 158.08 49.232H162.232ZM165.894 47.492C166.086 47.116 166.358 46.824 166.71 46.616C167.07 46.408 167.506 46.304 168.018 46.304V47.432H167.73C166.506 47.432 165.894 48.096 165.894 49.424V53H164.802V46.424H165.894V47.492Z" fill="#444444"/>
</svg>
