<svg width="20" height="16" viewBox="0 0 20 16" fill="none" xmlns="http://www.w3.org/2000/svg">
<path d="M10 4C8.89 4 7.88 4.43 7.16 5.16C6.43 5.88 6 6.89 6 8C6 9.11 6.43 10.12 7.16 10.84C7.88 11.57 8.89 12 10 12C11.11 12 12.12 11.57 12.84 10.84C13.57 10.12 14 9.11 14 8C14 6.89 13.57 5.88 12.84 5.16C12.12 4.43 11.11 4 10 4ZM11.43 9.43C11.08 9.78 10.59 10 10 10C9.41 10 8.92 9.78 8.57 9.43C8.22 9.08 8 8.59 8 8C8 7.41 8.22 6.92 8.57 6.57C8.92 6.22 9.41 6 10 6C10.59 6 11.08 6.22 11.43 6.57C11.78 6.92 12 7.41 12 8C12 8.59 11.78 9.08 11.43 9.43Z" fill="#666666"/>
<path d="M20 8C19.99 7.26 19.75 6.47 19.33 5.62C18.69 4.35 17.61 2.97 16.06 1.87C14.5 0.78 12.46 0 10 0C6.71 0 4.19 1.39 2.54 3.04C1.71 3.87 1.09 4.77 0.67 5.62C0.25 6.47 0.01 7.26 0 8C0.01 8.74 0.25 9.53 0.67 10.38C1.31 11.65 2.39 13.03 3.94 14.13C5.5 15.22 7.54 16 10 16C13.29 16 15.81 14.61 17.46 12.96C18.29 12.13 18.91 11.24 19.33 10.39C19.75 9.53 19.99 8.74 20 8ZM17.54 9.49C17.05 10.47 16.16 11.62 14.91 12.49C13.65 13.37 12.04 14 10 14C7.29 14 5.31 12.89 3.96 11.54C3.29 10.87 2.78 10.14 2.46 9.49C2.13 8.85 1.99 8.26 2 8C1.99 7.74 2.13 7.16 2.46 6.51C2.95 5.53 3.84 4.38 5.09 3.51C6.35 2.63 7.96 2 10 2C12.71 2 14.69 3.11 16.04 4.46C16.71 5.13 17.22 5.86 17.54 6.51C17.87 7.16 18.01 7.74 18 8C18.01 8.26 17.87 8.84 17.54 9.49Z" fill="#666666"/>
</svg>
