<svg width="36" height="36" viewBox="0 0 36 36" fill="none" xmlns="http://www.w3.org/2000/svg">
<rect width="36" height="36" rx="18" fill="white"/>
<g clip-path="url(#clip0_471_27907)">
<path d="M23 9.66675H13C11.1583 9.66675 9.66666 11.1584 9.66666 13.0001V23.0001C9.66666 24.8417 11.1583 26.3334 13 26.3334H16.75H19.25H23C24.8417 26.3334 26.3333 24.8417 26.3333 23.0001V13.0001C26.3333 11.1584 24.8417 9.66675 23 9.66675ZM14.6667 21.3334H13.8333C13.375 21.3334 13 20.9584 13 20.5001C13 20.0417 13.375 19.6667 13.8333 19.6667H14.6667C15.125 19.6667 15.5 20.0417 15.5 20.5001C15.5 20.9584 15.125 21.3334 14.6667 21.3334ZM14.6667 18.0001H13.8333C13.375 18.0001 13 17.6251 13 17.1667C13 16.7084 13.375 16.3334 13.8333 16.3334H14.6667C15.125 16.3334 15.5 16.7084 15.5 17.1667C15.5 17.6251 15.125 18.0001 14.6667 18.0001ZM14.6667 14.6667H13.8333C13.375 14.6667 13 14.2917 13 13.8334C13 13.3751 13.375 13.0001 13.8333 13.0001H14.6667C15.125 13.0001 15.5 13.3751 15.5 13.8334C15.5 14.2917 15.125 14.6667 14.6667 14.6667ZM19.25 24.5334H16.75V23.7001C16.75 23.2417 17.125 22.8667 17.5833 22.8667H18.4167C18.875 22.8667 19.25 23.2417 19.25 23.7001V24.5334ZM18.4167 21.3334H17.5833C17.125 21.3334 16.75 20.9584 16.75 20.5001C16.75 20.0417 17.125 19.6667 17.5833 19.6667H18.4167C18.875 19.6667 19.25 20.0417 19.25 20.5001C19.25 20.9584 18.875 21.3334 18.4167 21.3334ZM18.4167 18.0001H17.5833C17.125 18.0001 16.75 17.6251 16.75 17.1667C16.75 16.7084 17.125 16.3334 17.5833 16.3334H18.4167C18.875 16.3334 19.25 16.7084 19.25 17.1667C19.25 17.6251 18.875 18.0001 18.4167 18.0001ZM18.4167 14.6667H17.5833C17.125 14.6667 16.75 14.2917 16.75 13.8334C16.75 13.3751 17.125 13.0001 17.5833 13.0001H18.4167C18.875 13.0001 19.25 13.3751 19.25 13.8334C19.25 14.2917 18.875 14.6667 18.4167 14.6667ZM22.1667 21.3334H21.3333C20.875 21.3334 20.5 20.9584 20.5 20.5001C20.5 20.0417 20.875 19.6667 21.3333 19.6667H22.1667C22.625 19.6667 23 20.0417 23 20.5001C23 20.9584 22.625 21.3334 22.1667 21.3334ZM22.1667 18.0001H21.3333C20.875 18.0001 20.5 17.6251 20.5 17.1667C20.5 16.7084 20.875 16.3334 21.3333 16.3334H22.1667C22.625 16.3334 23 16.7084 23 17.1667C23 17.6251 22.625 18.0001 22.1667 18.0001ZM22.1667 14.6667H21.3333C20.875 14.6667 20.5 14.2917 20.5 13.8334C20.5 13.3751 20.875 13.0001 21.3333 13.0001H22.1667C22.625 13.0001 23 13.3751 23 13.8334C23 14.2917 22.625 14.6667 22.1667 14.6667Z" fill="#20C1AA"/>
</g>
<defs>
<clipPath id="clip0_471_27907">
<rect width="16.6667" height="16.6667" fill="white" transform="translate(9.66666 9.66675)"/>
</clipPath>
</defs>
</svg>
