<svg width="22" height="16" viewBox="0 0 22 16" fill="none" xmlns="http://www.w3.org/2000/svg">
<path opacity="0.6" fill-rule="evenodd" clip-rule="evenodd" d="M21.245 1.90668C20.4919 2.22828 19.679 2.44652 18.8302 2.53841C19.7029 2.03302 20.3604 1.25197 20.6831 0.298636C19.8702 0.758076 18.9736 1.10266 18.0173 1.27495C17.2522 0.493898 16.1524 0 14.945 0C12.6258 0 10.737 1.81479 10.737 4.04307C10.737 4.36468 10.7729 4.66332 10.8446 4.96195C7.35388 4.78966 4.24572 3.18162 2.17759 0.735104C1.81895 1.33238 1.60377 2.02154 1.60377 2.76813C1.60377 4.16942 2.34495 5.40991 3.48063 6.13352C2.78727 6.11055 2.14173 5.92678 1.57986 5.62814C1.57986 5.63963 1.57986 5.6626 1.57986 5.67408C1.57986 7.62671 3.02636 9.2692 4.95103 9.63675C4.5924 9.72864 4.22181 9.77459 3.83926 9.77459C3.56431 9.77459 3.30131 9.75162 3.05027 9.70567C3.58822 11.3137 5.1423 12.4853 6.98329 12.5083C5.54875 13.5879 3.73167 14.2426 1.75918 14.2426C1.42446 14.2426 1.08973 14.2197 0.755005 14.1852C2.6199 15.3338 4.83149 16 7.19847 16C14.933 16 19.1649 9.8435 19.1649 4.50251C19.1649 4.33022 19.1649 4.15793 19.153 3.97416C19.9659 3.43431 20.6831 2.72218 21.245 1.90668Z" fill="#222222"/>
</svg>
