<svg width="181" height="58" viewBox="0 0 181 58" fill="none" xmlns="http://www.w3.org/2000/svg">
<path d="M137.514 18.5618C139.351 18.5618 140.841 17.1489 140.841 15.4059C140.841 13.6629 139.351 12.25 137.514 12.25C135.677 12.25 134.187 13.6629 134.187 15.4059C134.187 17.1489 135.677 18.5618 137.514 18.5618Z" fill="#F44336"/>
<path d="M31.6525 24.9818L26.661 17.3781C26.661 17.3472 26.4096 16.9938 26.4096 16.9938L26.2093 16.9165L18.7571 18.7451L14.2848 21.8414L13.8354 27.1881L13.8657 27.261L17.0459 31.6669L26.363 33.0803L31.6548 25.174V24.984L31.6525 24.9818ZM26.1092 17.2964C23.4459 18.9549 21.616 21.7221 21.3483 24.9023H21.169L19.1598 18.9461L26.1092 17.2964ZM18.8386 19.125L20.7266 24.7279L14.8249 21.8303L18.8386 19.1272V19.125ZM14.6293 22.1285L20.282 24.9023L20.6149 25.0437L19.835 25.2491L14.2242 26.9187L14.627 22.1285H14.6293ZM17.2578 31.3444L14.3081 27.2588L21.0526 25.2491H21.3273C21.3157 25.4014 21.3133 25.5538 21.3133 25.7106C21.3133 28.2614 22.3191 30.5958 23.9767 32.3692L17.2578 31.3444ZM26.1232 32.6938L24.561 32.4553C22.7754 30.7062 21.6765 28.3321 21.6765 25.7106C21.6765 25.5538 21.6812 25.4014 21.6905 25.2491H31.1542L26.1232 32.696V32.6938ZM21.7138 24.9001C21.9815 21.8281 23.7625 19.1559 26.349 17.5592L31.1682 24.9001H21.7138Z" fill="#444444"/>
<path d="M25.2827 36.0066C27.1201 36.0066 28.6095 34.5937 28.6095 32.8507C28.6095 31.1078 27.1201 29.6948 25.2827 29.6948C23.4453 29.6948 21.9558 31.1078 21.9558 32.8507C21.9558 34.5937 23.4453 36.0066 25.2827 36.0066Z" fill="#DE2A2F"/>
<path d="M18.7457 20.2117C19.4348 20.2117 19.9935 19.6817 19.9935 19.028C19.9935 18.3742 19.4348 17.8442 18.7457 17.8442C18.0565 17.8442 17.4978 18.3742 17.4978 19.028C17.4978 19.6817 18.0565 20.2117 18.7457 20.2117Z" fill="#DE2A2F"/>
<path d="M26.0417 20.5913C27.8791 20.5913 29.3686 19.1784 29.3686 17.4354C29.3686 15.6925 27.8791 14.2795 26.0417 14.2795C24.2043 14.2795 22.7148 15.6925 22.7148 17.4354C22.7148 19.1784 24.2043 20.5913 26.0417 20.5913Z" fill="#0E9F49"/>
<path d="M21.125 28.1534C22.9623 28.1534 24.4518 26.7404 24.4518 24.9975C24.4518 23.2545 22.9623 21.8416 21.125 21.8416C19.2876 21.8416 17.7981 23.2545 17.7981 24.9975C17.7981 26.7404 19.2876 28.1534 21.125 28.1534Z" fill="#FAD900"/>
<path d="M14.8596 23.1443C15.6027 23.1443 16.2052 22.5728 16.2052 21.8678C16.2052 21.1628 15.6027 20.5913 14.8596 20.5913C14.1164 20.5913 13.5139 21.1628 13.5139 21.8678C13.5139 22.5728 14.1164 23.1443 14.8596 23.1443Z" fill="#0E9F49"/>
<path d="M17.232 32.2721C17.799 32.2721 18.2587 31.836 18.2587 31.2982C18.2587 30.7603 17.799 30.3242 17.232 30.3242C16.665 30.3242 16.2053 30.7603 16.2053 31.2982C16.2053 31.836 16.665 32.2721 17.232 32.2721Z" fill="#FAD900"/>
<path d="M14.1684 28.3124C14.8615 28.3124 15.4233 27.7794 15.4233 27.122C15.4233 26.4646 14.8615 25.9316 14.1684 25.9316C13.4754 25.9316 12.9136 26.4646 12.9136 27.122C12.9136 27.7794 13.4754 28.3124 14.1684 28.3124Z" fill="#DE2A2F"/>
<path d="M47.6558 15.249V35.3925H43.3744V26.5564H35.9477V35.3925H31.6523V28.3077C33.5335 28.1995 35.0188 26.722 35.0188 24.9155C35.0188 23.109 33.5335 21.6293 31.6523 21.5211V15.249H35.9477V22.8484H43.3744V15.249H47.6558Z" fill="#F44336"/>
<path d="M49.7581 20.492H53.9324V27.6673C53.9324 29.063 54.0394 30.0347 54.2513 30.578C54.4632 31.1213 54.8054 31.5431 55.2757 31.8457C55.746 32.146 56.3233 32.2984 57.0124 32.2984C57.7016 32.2984 58.2836 32.1505 58.7632 31.8523C59.2428 31.5564 59.599 31.1191 59.8318 30.5449C60.0041 30.1165 60.0902 29.1977 60.0902 27.7932V20.492H64.2203V26.8038C64.2203 29.4053 63.9944 31.1854 63.5405 32.1438C62.9864 33.3121 62.1692 34.2088 61.0913 34.8337C60.011 35.4587 58.6398 35.7723 56.9775 35.7723C55.1732 35.7723 53.7135 35.408 52.5984 34.6769C51.4832 33.9459 50.7009 32.93 50.247 31.6226C49.9234 30.7194 49.7627 29.0763 49.7627 26.6933V20.4897L49.7581 20.492Z" fill="#F44336"/>
<path d="M66.2178 20.4922H70.3478V22.2037C71.0532 21.5015 71.8378 20.9758 72.7015 20.6291C73.5653 20.2824 74.5058 20.1079 75.5255 20.1079C76.5453 20.1079 77.4835 20.3354 78.31 20.7925C79.1364 21.2497 79.8023 21.9144 80.3075 22.7912C80.964 21.9144 81.7672 21.2497 82.7217 20.7925C83.6762 20.3354 84.7169 20.1079 85.8484 20.1079C86.9798 20.1079 88.0484 20.3553 88.9354 20.8477C89.8225 21.3402 90.4627 21.9851 90.8491 22.7779C91.2379 23.573 91.4312 24.865 91.4312 26.6538V35.3905H87.2708V27.8309C87.2708 26.1414 87.038 24.9997 86.5747 24.4012C86.1114 23.8027 85.4153 23.5045 84.4864 23.5045C83.781 23.5045 83.1478 23.6878 82.589 24.0522C82.0303 24.4166 81.6135 24.9224 81.3412 25.565C81.0688 26.2077 80.9337 27.2435 80.9337 28.6657V35.3883H76.7734V28.1732C76.7734 26.8415 76.664 25.8742 76.4475 25.2779C76.231 24.6794 75.905 24.2355 75.4697 23.944C75.0343 23.6525 74.5082 23.5067 73.8935 23.5067C73.2067 23.5067 72.5828 23.6923 72.0217 24.0611C71.4607 24.4299 71.0416 24.9489 70.7646 25.6158C70.4875 26.2828 70.3478 27.3318 70.3478 28.7651V35.3927H66.2178V20.4922Z" fill="#F44336"/>
<path d="M105.395 20.4919H109.525V35.3903H105.395V33.8156C104.59 34.5091 103.782 35.0082 102.972 35.3152C102.162 35.6199 101.282 35.7745 100.334 35.7745C98.2084 35.7745 96.3715 35.0281 94.8187 33.5351C93.2682 32.0422 92.4929 30.1871 92.4929 27.9698C92.4929 25.7525 93.2426 23.7848 94.7442 22.3139C96.2458 20.8453 98.0687 20.1099 100.213 20.1099C101.2 20.1099 102.127 20.2799 102.993 20.6156C103.859 20.9535 104.66 21.4592 105.395 22.135V20.4919ZM101.053 23.5595C99.7776 23.5595 98.7183 23.9681 97.8732 24.7852C97.0281 25.6023 96.6067 26.6491 96.6067 27.9278C96.6067 29.2065 97.0374 30.2732 97.8965 31.1036C98.7555 31.934 99.8125 32.3492 101.07 32.3492C102.327 32.3492 103.442 31.9406 104.296 31.1235C105.151 30.3064 105.577 29.2353 105.577 27.9124C105.577 26.5895 105.151 25.567 104.296 24.7631C103.442 23.9592 102.362 23.5573 101.056 23.5573L101.053 23.5595Z" fill="#F44336"/>
<path d="M116.598 15.249H120.894V22.8484H128.32V15.249H132.602V35.3903H128.32V26.5586H120.894V35.3903H116.598V15.249Z" fill="#444444"/>
<path d="M139.579 20.4922H135.449V35.3905H139.579V20.4922Z" fill="#444444"/>
<path d="M142.219 20.4922H145.757V22.3672C146.142 21.6273 146.649 21.0664 147.285 20.6821C147.92 20.2978 148.616 20.1079 149.373 20.1079C149.906 20.1079 150.467 20.236 151.052 20.4922L149.766 23.7099C149.282 23.4913 148.884 23.3809 148.572 23.3809C147.937 23.3809 147.399 23.7364 146.961 24.4498C146.523 25.1631 146.302 26.5588 146.302 28.6392L146.319 29.3658V35.3905H142.219V20.4922Z" fill="#444444"/>
<path d="M167.861 29.0235H154.595C154.786 30.0835 155.298 30.925 156.129 31.55C156.96 32.175 158.022 32.4886 159.314 32.4886C160.858 32.4886 162.182 32.0005 163.293 31.0244L166.771 32.504C165.905 33.6171 164.867 34.4409 163.656 34.9753C162.445 35.5098 161.009 35.777 159.344 35.777C156.762 35.777 154.66 35.0393 153.038 33.5663C151.415 32.0932 150.602 30.2448 150.602 28.0275C150.602 25.8102 151.412 23.8667 153.031 22.3649C154.649 20.8632 156.679 20.1123 159.119 20.1123C161.71 20.1123 163.817 20.8632 165.442 22.3649C167.064 23.8667 167.877 25.8499 167.877 28.3146L167.863 29.0257L167.861 29.0235ZM163.731 26.0796C163.458 25.2492 162.92 24.5734 162.117 24.0522C161.314 23.531 160.383 23.2726 159.321 23.2726C158.169 23.2726 157.161 23.5641 156.29 24.1494C155.745 24.516 155.24 25.1587 154.774 26.0796H163.728H163.731Z" fill="#444444"/>
<path d="M86.8864 44.636V45.524H83.2504V48.344H86.2024V49.232H83.2504V53H82.1584V44.636H86.8864ZM91.0733 53.108C90.4573 53.108 89.8973 52.968 89.3933 52.688C88.8973 52.408 88.5053 52.012 88.2173 51.5C87.9373 50.98 87.7973 50.38 87.7973 49.7C87.7973 49.028 87.9413 48.436 88.2293 47.924C88.5253 47.404 88.9253 47.008 89.4293 46.736C89.9333 46.456 90.4973 46.316 91.1213 46.316C91.7453 46.316 92.3093 46.456 92.8133 46.736C93.3173 47.008 93.7133 47.4 94.0013 47.912C94.2973 48.424 94.4453 49.02 94.4453 49.7C94.4453 50.38 94.2933 50.98 93.9893 51.5C93.6933 52.012 93.2893 52.408 92.7773 52.688C92.2653 52.968 91.6973 53.108 91.0733 53.108ZM91.0733 52.148C91.4653 52.148 91.8333 52.056 92.1773 51.872C92.5213 51.688 92.7973 51.412 93.0053 51.044C93.2213 50.676 93.3293 50.228 93.3293 49.7C93.3293 49.172 93.2253 48.724 93.0173 48.356C92.8093 47.988 92.5373 47.716 92.2013 47.54C91.8653 47.356 91.5013 47.264 91.1093 47.264C90.7093 47.264 90.3413 47.356 90.0053 47.54C89.6773 47.716 89.4133 47.988 89.2133 48.356C89.0133 48.724 88.9133 49.172 88.9133 49.7C88.9133 50.236 89.0093 50.688 89.2013 51.056C89.4013 51.424 89.6653 51.7 89.9933 51.884C90.3213 52.06 90.6813 52.148 91.0733 52.148ZM96.973 47.492C97.165 47.116 97.437 46.824 97.789 46.616C98.149 46.408 98.585 46.304 99.097 46.304V47.432H98.809C97.585 47.432 96.973 48.096 96.973 49.424V53H95.881V46.424H96.973V47.492ZM107.769 44.636V50.816C107.769 51.504 107.557 52.056 107.133 52.472C106.709 52.88 106.149 53.084 105.453 53.084C104.749 53.084 104.185 52.876 103.761 52.46C103.337 52.036 103.125 51.46 103.125 50.732H104.217C104.225 51.14 104.329 51.472 104.529 51.728C104.737 51.984 105.045 52.112 105.453 52.112C105.861 52.112 106.165 51.992 106.365 51.752C106.565 51.504 106.665 51.192 106.665 50.816V44.636H107.769ZM112.788 53.108C112.172 53.108 111.612 52.968 111.108 52.688C110.612 52.408 110.22 52.012 109.932 51.5C109.652 50.98 109.512 50.38 109.512 49.7C109.512 49.028 109.656 48.436 109.944 47.924C110.24 47.404 110.64 47.008 111.144 46.736C111.648 46.456 112.212 46.316 112.836 46.316C113.46 46.316 114.024 46.456 114.528 46.736C115.032 47.008 115.428 47.4 115.716 47.912C116.012 48.424 116.16 49.02 116.16 49.7C116.16 50.38 116.008 50.98 115.704 51.5C115.408 52.012 115.004 52.408 114.492 52.688C113.98 52.968 113.412 53.108 112.788 53.108ZM112.788 52.148C113.18 52.148 113.548 52.056 113.892 51.872C114.236 51.688 114.512 51.412 114.72 51.044C114.936 50.676 115.044 50.228 115.044 49.7C115.044 49.172 114.94 48.724 114.732 48.356C114.524 47.988 114.252 47.716 113.916 47.54C113.58 47.356 113.216 47.264 112.824 47.264C112.424 47.264 112.056 47.356 111.72 47.54C111.392 47.716 111.128 47.988 110.928 48.356C110.728 48.724 110.628 49.172 110.628 49.7C110.628 50.236 110.724 50.688 110.916 51.056C111.116 51.424 111.38 51.7 111.708 51.884C112.036 52.06 112.396 52.148 112.788 52.148ZM118.688 47.648C118.912 47.256 119.24 46.936 119.672 46.688C120.104 46.44 120.596 46.316 121.148 46.316C121.74 46.316 122.272 46.456 122.744 46.736C123.216 47.016 123.588 47.412 123.86 47.924C124.132 48.428 124.268 49.016 124.268 49.688C124.268 50.352 124.132 50.944 123.86 51.464C123.588 51.984 123.212 52.388 122.732 52.676C122.26 52.964 121.732 53.108 121.148 53.108C120.58 53.108 120.08 52.984 119.648 52.736C119.224 52.488 118.904 52.172 118.688 51.788V53H117.596V44.12H118.688V47.648ZM123.152 49.688C123.152 49.192 123.052 48.76 122.852 48.392C122.652 48.024 122.38 47.744 122.036 47.552C121.7 47.36 121.328 47.264 120.92 47.264C120.52 47.264 120.148 47.364 119.804 47.564C119.468 47.756 119.196 48.04 118.988 48.416C118.788 48.784 118.688 49.212 118.688 49.7C118.688 50.196 118.788 50.632 118.988 51.008C119.196 51.376 119.468 51.66 119.804 51.86C120.148 52.052 120.52 52.148 120.92 52.148C121.328 52.148 121.7 52.052 122.036 51.86C122.38 51.66 122.652 51.376 122.852 51.008C123.052 50.632 123.152 50.192 123.152 49.688ZM131.556 53.084C131.004 53.084 130.508 52.988 130.068 52.796C129.636 52.596 129.296 52.324 129.048 51.98C128.8 51.628 128.672 51.224 128.664 50.768H129.828C129.868 51.16 130.028 51.492 130.308 51.764C130.596 52.028 131.012 52.16 131.556 52.16C132.076 52.16 132.484 52.032 132.78 51.776C133.084 51.512 133.236 51.176 133.236 50.768C133.236 50.448 133.148 50.188 132.972 49.988C132.796 49.788 132.576 49.636 132.312 49.532C132.048 49.428 131.692 49.316 131.244 49.196C130.692 49.052 130.248 48.908 129.912 48.764C129.584 48.62 129.3 48.396 129.06 48.092C128.828 47.78 128.712 47.364 128.712 46.844C128.712 46.388 128.828 45.984 129.06 45.632C129.292 45.28 129.616 45.008 130.032 44.816C130.456 44.624 130.94 44.528 131.484 44.528C132.268 44.528 132.908 44.724 133.404 45.116C133.908 45.508 134.192 46.028 134.256 46.676H133.056C133.016 46.356 132.848 46.076 132.552 45.836C132.256 45.588 131.864 45.464 131.376 45.464C130.92 45.464 130.548 45.584 130.26 45.824C129.972 46.056 129.828 46.384 129.828 46.808C129.828 47.112 129.912 47.36 130.08 47.552C130.256 47.744 130.468 47.892 130.716 47.996C130.972 48.092 131.328 48.204 131.784 48.332C132.336 48.484 132.78 48.636 133.116 48.788C133.452 48.932 133.74 49.16 133.98 49.472C134.22 49.776 134.34 50.192 134.34 50.72C134.34 51.128 134.232 51.512 134.016 51.872C133.8 52.232 133.48 52.524 133.056 52.748C132.632 52.972 132.132 53.084 131.556 53.084ZM141.947 49.46C141.947 49.668 141.935 49.888 141.911 50.12H136.655C136.695 50.768 136.915 51.276 137.315 51.644C137.723 52.004 138.215 52.184 138.791 52.184C139.263 52.184 139.655 52.076 139.967 51.86C140.287 51.636 140.511 51.34 140.639 50.972H141.815C141.639 51.604 141.287 52.12 140.759 52.52C140.231 52.912 139.575 53.108 138.791 53.108C138.167 53.108 137.607 52.968 137.111 52.688C136.623 52.408 136.239 52.012 135.959 51.5C135.679 50.98 135.539 50.38 135.539 49.7C135.539 49.02 135.675 48.424 135.947 47.912C136.219 47.4 136.599 47.008 137.087 46.736C137.583 46.456 138.151 46.316 138.791 46.316C139.415 46.316 139.967 46.452 140.447 46.724C140.927 46.996 141.295 47.372 141.551 47.852C141.815 48.324 141.947 48.86 141.947 49.46ZM140.819 49.232C140.819 48.816 140.727 48.46 140.543 48.164C140.359 47.86 140.107 47.632 139.787 47.48C139.475 47.32 139.127 47.24 138.743 47.24C138.191 47.24 137.719 47.416 137.327 47.768C136.943 48.12 136.723 48.608 136.667 49.232H140.819ZM149.389 49.46C149.389 49.668 149.377 49.888 149.353 50.12H144.097C144.137 50.768 144.357 51.276 144.757 51.644C145.165 52.004 145.657 52.184 146.233 52.184C146.705 52.184 147.097 52.076 147.409 51.86C147.729 51.636 147.953 51.34 148.081 50.972H149.257C149.081 51.604 148.729 52.12 148.201 52.52C147.673 52.912 147.017 53.108 146.233 53.108C145.609 53.108 145.049 52.968 144.553 52.688C144.065 52.408 143.681 52.012 143.401 51.5C143.121 50.98 142.981 50.38 142.981 49.7C142.981 49.02 143.117 48.424 143.389 47.912C143.661 47.4 144.041 47.008 144.529 46.736C145.025 46.456 145.593 46.316 146.233 46.316C146.857 46.316 147.409 46.452 147.889 46.724C148.369 46.996 148.737 47.372 148.993 47.852C149.257 48.324 149.389 48.86 149.389 49.46ZM148.261 49.232C148.261 48.816 148.169 48.46 147.985 48.164C147.801 47.86 147.549 47.632 147.229 47.48C146.917 47.32 146.569 47.24 146.185 47.24C145.633 47.24 145.161 47.416 144.769 47.768C144.385 48.12 144.165 48.608 144.109 49.232H148.261ZM154.502 53L151.922 50.096V53H150.83V44.12H151.922V49.34L154.454 46.424H155.978L152.882 49.7L155.99 53H154.502ZM163.006 49.46C163.006 49.668 162.994 49.888 162.97 50.12H157.714C157.754 50.768 157.974 51.276 158.374 51.644C158.782 52.004 159.274 52.184 159.85 52.184C160.322 52.184 160.714 52.076 161.026 51.86C161.346 51.636 161.57 51.34 161.698 50.972H162.874C162.698 51.604 162.346 52.12 161.818 52.52C161.29 52.912 160.634 53.108 159.85 53.108C159.226 53.108 158.666 52.968 158.17 52.688C157.682 52.408 157.298 52.012 157.018 51.5C156.738 50.98 156.598 50.38 156.598 49.7C156.598 49.02 156.734 48.424 157.006 47.912C157.278 47.4 157.658 47.008 158.146 46.736C158.642 46.456 159.21 46.316 159.85 46.316C160.474 46.316 161.026 46.452 161.506 46.724C161.986 46.996 162.354 47.372 162.61 47.852C162.874 48.324 163.006 48.86 163.006 49.46ZM161.878 49.232C161.878 48.816 161.786 48.46 161.602 48.164C161.418 47.86 161.166 47.632 160.846 47.48C160.534 47.32 160.186 47.24 159.802 47.24C159.25 47.24 158.778 47.416 158.386 47.768C158.002 48.12 157.782 48.608 157.726 49.232H161.878ZM165.539 47.492C165.731 47.116 166.003 46.824 166.355 46.616C166.715 46.408 167.151 46.304 167.663 46.304V47.432H167.375C166.151 47.432 165.539 48.096 165.539 49.424V53H164.447V46.424H165.539V47.492Z" fill="#444444"/>
</svg>
