<svg width="166" height="124" viewBox="0 0 166 124" fill="none" xmlns="http://www.w3.org/2000/svg">
<path d="M128.813 -0.25C138.263 -0.251297 147.336 3.46169 154.074 10.0883C160.813 16.715 164.677 25.7244 164.833 35.1739C165.76 44.0762 165.626 57.2084 159.605 72.368C153.451 87.8672 141.451 104.766 119.55 121.192C118.469 122.003 117.239 122.593 115.929 122.928C114.62 123.263 113.258 123.338 111.92 123.147C109.218 122.761 106.779 121.317 105.142 119.133C103.504 116.95 102.801 114.205 103.187 111.503C103.573 108.801 105.017 106.363 107.2 104.725C123.296 92.6529 132.518 80.9204 137.797 70.6596C132.847 71.9307 127.684 72.1341 122.649 71.2561C117.615 70.3781 112.825 68.4388 108.597 65.5672C104.37 62.6955 100.802 58.9572 98.1302 54.6005C95.4588 50.2439 93.7449 45.3686 93.1025 40.2987C92.4601 35.2287 92.9039 30.08 94.4044 25.1948C95.9049 20.3095 98.4277 15.7994 101.805 11.9642C105.183 8.12895 109.338 5.05632 113.994 2.95041C118.651 0.844509 123.702 -0.246453 128.813 -0.25ZM36.1876 -0.25C45.6384 -0.251297 54.7111 3.46169 61.4494 10.0883C68.1878 16.715 72.0518 25.7244 72.2085 35.1739C73.1347 44.0762 73.0009 57.2084 66.9803 72.368C60.8362 87.8672 48.8258 104.766 26.9251 121.192C25.8439 122.003 24.6135 122.593 23.3043 122.928C21.9951 123.263 20.6326 123.338 19.2947 123.147C16.5926 122.761 14.1545 121.317 12.5168 119.133C10.8791 116.95 10.1759 114.205 10.5619 111.503C10.9479 108.801 12.3915 106.363 14.5751 104.725C30.6713 92.6529 39.8926 80.9204 45.1722 70.6596C40.2223 71.9307 35.0586 72.1341 30.0241 71.2561C24.9896 70.3781 20.1995 68.4388 15.9721 65.5672C11.7447 62.6955 8.17673 58.9572 5.50524 54.6005C2.83375 50.2439 1.11988 45.3686 0.477484 40.2987C-0.164909 35.2287 0.278879 30.08 1.77937 25.1948C3.27986 20.3095 5.80271 15.7994 9.18032 11.9642C12.5579 8.12895 16.713 5.05632 21.3694 2.95041C26.0258 0.844509 31.0771 -0.246453 36.1876 -0.25Z" fill="#F4FCFB"/>
</svg>
